<svg width="256" height="253" viewBox="0 0 256 253" fill="none" xmlns="http://www.w3.org/2000/svg">
<path d="M51.6107 21.858C54.8407 21.5252 57.9326 21.6891 60.8863 22.3497C63.9111 22.9127 66.5803 23.9633 68.8939 25.5014C71.2919 27.0262 73.2921 29.0452 74.8947 31.5583C76.5683 33.9739 77.6757 36.91 78.2167 40.3666C78.6653 43.233 78.5568 46.4026 77.8911 49.8753L72.2748 79.3867C71.475 83.6577 70.1256 87.4533 68.2269 90.7736C66.4124 94.0806 64.2658 96.9213 61.7872 99.2958C59.3086 101.67 56.5887 103.608 53.6277 105.107C50.6535 106.523 47.6067 107.475 44.4873 107.963C40.9464 108.517 37.524 108.448 34.2199 107.756C30.9026 106.98 27.983 105.709 25.4612 103.945L20.7291 129.172C20.2687 131.749 19.3787 133.788 18.0591 135.29C16.7526 136.877 15.2406 137.977 13.5229 138.591C11.9028 139.277 10.21 139.499 8.44473 139.257C6.69262 139.099 5.1762 138.516 3.89548 137.507C2.54365 136.596 1.51842 135.288 0.819786 133.584C0.121156 131.879 0.0218416 129.865 0.521842 127.541L18.3449 31.9877C18.8684 28.71 20.1206 26.2252 22.1014 24.5332C24.1534 22.7437 26.3175 21.6708 28.5938 21.3146C30.8701 20.9583 32.9924 21.2739 34.9608 22.2614C36.9292 23.2489 38.1139 24.7478 38.5149 26.7579C40.2428 25.1056 42.3516 23.955 44.8412 23.3062C47.4019 22.5599 49.6584 22.0772 51.6107 21.858ZM56.9976 53.7932C57.4316 51.0477 57.4192 48.7608 56.9603 46.9324C56.4882 45.0197 55.8225 43.526 54.9633 42.4513C54.0909 41.2922 53.0606 40.5034 51.8722 40.0848C50.6839 39.6662 49.5285 39.4583 48.4061 39.4613C45.5844 39.6438 43.0567 40.6008 40.8229 42.3324C38.5891 44.0639 36.8285 46.8875 35.5411 50.803L30.6199 78.1326L30.5803 77.8797C30.5752 78.3988 30.57 78.9178 30.5649 79.4368C30.6309 79.8584 30.6969 80.2799 30.7628 80.7014C31.2115 83.5679 32.5504 85.7767 34.7798 87.328C37.0935 88.8661 39.6414 89.4174 42.4235 88.9819C44.8684 88.5993 47.0615 87.4355 49.0028 85.4906C50.944 83.5457 52.212 80.8857 52.8065 77.5105L56.9976 53.7932Z" fill="black"/>
<path d="M138.047 83.9918C138.378 81.6943 139.441 79.9301 141.235 78.6992C143.113 77.4551 145.048 76.85 147.04 76.8837C149.103 76.82 150.837 77.4123 152.241 78.6608C153.73 79.8961 154.251 81.8443 153.804 84.5055C152.646 90.9055 150.711 96.477 147.999 101.22C145.273 105.879 142.049 109.838 138.327 113.099C134.605 116.359 130.56 118.935 126.192 120.828C121.824 122.721 117.449 124.01 113.065 124.696C108.428 125.422 104.036 125.505 99.8885 124.945C95.7545 124.469 92.0473 123.408 88.7666 121.762C85.5571 120.019 82.8718 117.762 80.7106 114.99C78.5495 112.219 77.172 108.937 76.5782 105.143C76.3539 103.71 76.2495 102.215 76.2649 100.658C76.3646 99.0872 76.5486 97.5037 76.817 95.907L80.8936 73.1145C81.5014 69.8236 82.5479 66.8527 84.0332 64.2019C85.5053 61.4667 87.2963 59.1134 89.4062 57.1421C91.5029 55.0865 93.8408 53.4682 96.4199 52.2872C99.07 51.0087 101.786 50.1517 104.568 49.7163C108.109 49.1621 111.441 49.2021 114.563 49.8363C117.685 50.4704 120.41 51.5987 122.737 53.2211C125.135 54.746 127.086 56.7294 128.591 59.1714C130.167 61.5159 131.193 64.2056 131.668 67.2407C131.998 69.3484 132.024 71.7196 131.745 74.3544C131.35 77.3527 130.488 80.122 129.158 82.6622C127.913 85.1892 126.319 87.4252 124.378 89.3701C122.437 91.315 120.19 92.9622 117.637 94.3118C115.156 95.564 112.482 96.4143 109.615 96.863C107.086 97.2588 104.631 97.2976 102.249 96.9794C99.9511 96.6481 97.7826 96.0374 95.7431 95.1474L95.1075 97.7084C94.8575 98.8704 94.8315 100.084 95.0294 101.348C95.4912 104.299 97.2294 106.575 100.244 108.176C103.258 109.777 107.084 110.215 111.721 109.489C114.419 109.067 117.142 108.252 119.889 107.045C122.708 105.74 125.292 104.04 127.642 101.945C130.076 99.8363 132.184 97.3038 133.967 94.3472C135.834 91.3774 137.194 87.9256 138.047 83.9918ZM106.544 64.8245C105.111 65.0488 103.764 65.8211 102.502 67.1414C101.311 68.3642 100.488 70.0045 100.033 72.0623L98.565 80.0656C99.8509 80.5554 101.272 80.8079 102.829 80.8233C104.471 80.8255 106.031 80.5814 107.508 80.091C108.986 79.6006 110.25 78.8415 111.298 77.8137C112.417 76.6884 113.098 75.243 113.34 73.4777C113.532 72.4976 113.542 71.4595 113.371 70.3635C113.094 68.5931 112.308 67.1613 111.014 66.0682C109.805 64.962 108.315 64.5474 106.544 64.8245Z" fill="black"/>
<path d="M202.756 73.0868C203.056 71.1396 203.71 69.5257 204.719 68.245C205.728 66.9643 206.838 66.0563 208.05 65.5212C209.333 64.8885 210.675 64.6353 212.077 64.7614C213.465 64.8032 214.689 65.173 215.749 65.871C216.879 66.4714 217.718 67.4197 218.267 68.7158C218.815 70.0119 218.933 71.5914 218.62 73.4542C217.449 79.7699 215.562 85.377 212.961 90.2756C210.346 95.0898 207.064 99.2311 203.115 102.699C199.251 106.154 194.769 108.972 189.669 111.152C184.568 113.332 178.941 114.904 172.787 115.867C171.269 116.105 169.661 116.313 167.961 116.493C166.346 116.659 164.725 116.784 163.096 116.866C160.567 117.262 158.232 117.239 156.09 116.796C153.947 116.354 151.934 115.633 150.05 114.632C149.621 116.859 149.177 119.26 148.716 121.837C148.269 124.498 147.786 127.208 147.268 129.967C146.834 132.712 146.345 135.38 145.8 137.97C145.353 140.631 144.915 143.075 144.486 145.302C144.186 147.249 143.447 148.876 142.27 150.183C141.092 151.49 139.729 152.438 138.18 153.025C136.644 153.698 135.042 153.948 133.375 153.778C131.72 153.691 130.266 153.228 129.011 152.388C127.673 151.561 126.703 150.33 126.102 148.697C125.429 147.161 125.337 145.189 125.823 142.781L143.378 48.8245C143.594 46.8905 144.164 45.2898 145.088 44.0223C146.084 42.6573 147.223 41.6584 148.506 41.0258C149.86 40.2956 151.302 39.8539 152.833 39.7007C154.351 39.4632 155.739 39.505 156.999 39.8261C158.258 40.1472 159.333 40.67 160.224 41.3943C161.101 42.0343 161.571 42.8246 161.631 43.7651C162.88 42.3605 164.405 41.3445 166.207 40.7169C168.009 40.0894 169.753 39.6437 171.439 39.3798C173.884 38.9972 176.282 39.1401 178.632 39.8088C181.067 40.4642 183.259 41.503 185.209 42.9252C187.159 44.3475 188.783 46.1663 190.079 48.3818C191.447 50.4997 192.329 52.8233 192.725 55.3525C193.081 57.6288 193.045 59.8802 192.616 62.1066C191.611 67.2735 190.584 72.5735 189.534 78.0065C188.555 83.342 187.556 88.551 186.538 93.6336C186.435 94.0816 186.326 94.4873 186.21 94.851C186.179 95.2014 186.047 95.7402 185.816 96.4674C189.949 94.1795 193.486 91.121 196.428 87.292C199.442 83.3656 201.551 78.6305 202.756 73.0868ZM154.206 92.3456C153.785 95.1754 154.277 97.2145 155.682 98.463C157.073 99.6272 158.781 100.051 160.804 99.7343C162.477 99.3861 163.993 98.5873 165.352 97.3382C166.782 95.9915 167.683 94.2958 168.054 92.2512C168.514 89.6743 168.93 87.3636 169.301 85.319C169.756 83.2612 170.134 81.2587 170.434 79.3116C170.818 77.3513 171.196 75.3488 171.566 73.3042C171.937 71.2595 172.304 68.9133 172.667 66.2653C173.128 63.6884 172.853 61.6585 171.844 60.1754C170.821 58.608 169.327 57.8917 167.362 58.0266C165.578 58.2194 163.893 59.0445 162.308 60.5019C160.722 61.9593 159.552 63.8697 158.8 66.2333L159.033 66.0672L154.206 92.3456Z" fill="black"/>
<path d="M83.9032 204.955C84.1554 202.151 85.2141 200.086 87.0791 198.757C88.9309 197.344 90.8594 196.697 92.8644 196.815C94.8562 196.849 96.5742 197.617 98.0184 199.118C99.5338 200.522 100.081 202.639 99.6602 205.468C98.6843 211.926 96.6756 217.855 93.6339 223.254C90.6765 228.64 86.9193 233.331 82.3623 237.326C77.8896 241.309 72.8278 244.562 67.177 247.088C61.6106 249.6 55.7791 251.247 49.6826 252.028C44.1762 252.717 39.0214 252.617 34.2181 251.728C29.4992 250.826 25.3333 249.318 21.7206 247.206C18.179 244.997 15.2459 242.26 12.9213 238.996C10.6677 235.635 9.21769 231.889 8.57114 227.758C8.04334 224.385 7.95943 220.814 8.31943 217.044C8.66622 213.189 9.6006 209.501 11.1226 205.981C12.6313 202.376 14.8028 199.143 17.637 196.281C20.5423 193.322 24.283 191.009 28.8591 189.342C24.9509 185.895 22.5878 181.557 21.7697 176.33C21.3739 173.801 21.4021 170.946 21.8545 167.766L21.9887 166.968C22.6595 162.976 23.9087 159.369 25.7364 156.146C27.564 152.923 29.7659 150.16 32.3421 147.857C35.0026 145.54 37.9042 143.661 41.047 142.219C44.1899 140.777 47.3631 139.805 50.5668 139.304C54.5292 138.684 58.2889 138.7 61.8459 139.352C65.4029 140.005 68.5688 141.194 71.3436 142.919C74.1184 144.644 76.3624 146.84 78.0756 149.509C79.86 152.08 80.9317 155.065 81.2909 158.464C81.5577 161.272 80.8825 163.58 79.2653 165.388C77.7192 167.098 75.8567 168.167 73.6779 168.595C71.4859 168.938 69.2595 168.509 66.9986 167.308C64.822 166.094 63.2723 163.918 62.3493 160.78C61.6192 159.426 60.3187 158.291 58.4478 157.375C56.648 156.361 54.7786 156.006 52.8396 156.309C48.6242 156.969 45.5895 158.826 43.7355 161.88C41.9657 164.921 41.4041 168.507 42.0507 172.638C42.5125 175.588 43.8911 178.05 46.1864 180.023C48.4686 181.911 51.5065 182.559 55.3003 181.965C58.3618 181.659 60.8675 182.217 62.8176 183.639C64.7544 184.977 66.063 186.715 66.7433 188.855C67.5079 190.981 67.6046 193.254 67.0335 195.676C66.5467 198.084 65.4393 200.114 63.7114 201.767C61.9835 203.419 59.602 204.483 56.5669 204.958C53.6162 205.42 49.9682 204.738 45.6232 202.913C44.1056 203.151 42.4814 203.535 40.7506 204.065C39.0908 204.497 37.5128 205.176 36.0165 206.101C34.5203 207.026 33.1611 208.276 31.939 209.849C30.788 211.325 29.9269 213.273 29.3558 215.695C28.1931 222.614 29.355 227.83 32.8416 231.344C36.3993 234.76 41.9404 236.225 49.465 235.738C53.0059 235.184 56.6362 234.098 60.356 232.479C64.0626 230.776 67.528 228.636 70.7522 226.058C73.9764 223.481 76.7843 220.45 79.1757 216.966C81.5539 213.398 83.1298 209.394 83.9032 204.955Z" fill="black"/>
<path d="M148.482 201.585C148.782 199.637 149.436 198.023 150.445 196.743C151.453 195.462 152.606 194.548 153.902 193.999C155.269 193.353 156.647 193.051 158.036 193.093C159.508 193.122 160.781 193.527 161.854 194.309C162.926 195.092 163.708 196.222 164.198 197.7C164.675 199.093 164.651 200.868 164.124 203.023C163.83 204.451 163.537 205.62 163.248 206.529C163.029 207.34 162.76 208.376 162.439 209.635C160.959 214.531 159.199 218.736 157.158 222.252C155.104 225.682 152.873 228.536 150.465 230.813C148.045 233.006 145.502 234.7 142.839 235.894C140.189 237.172 137.557 238.016 134.944 238.425C133.932 238.583 132.612 238.704 130.984 238.786C129.44 238.855 127.779 238.726 126 238.4C124.235 238.158 122.472 237.656 120.712 236.895C119.036 236.121 117.609 235.006 116.431 233.549C114.471 235.929 112.144 237.891 109.449 239.435C106.852 241.051 104.12 242.083 101.253 242.532C98.4713 242.967 95.7786 242.871 93.1753 242.242C90.6564 241.599 88.3798 240.574 86.3454 239.165C84.3822 237.658 82.7166 235.846 81.3486 233.728C79.9675 231.526 79.0724 229.118 78.6634 226.504C78.4786 225.324 78.427 224.166 78.5083 223.03C78.5054 221.908 78.6224 220.724 78.8592 219.477L85.5014 184.105C86.6041 179.009 88.9097 174.977 92.4184 172.01C96.0114 169.029 99.9155 167.209 104.131 166.549C107.672 165.995 110.737 165.99 113.327 166.535C115.904 166.995 117.891 167.548 119.287 168.193C120.515 166.101 122.269 164.617 124.55 163.742C126.903 162.769 129.15 162.504 131.292 162.946C133.435 163.388 135.212 164.535 136.625 166.387C138.024 168.154 138.427 170.726 137.832 174.101L130.002 216.785C129.818 218.368 129.798 219.624 129.944 220.551C130.273 222.659 131.577 223.535 133.853 223.178C136.719 222.73 139.439 220.792 142.012 217.367C144.586 213.941 146.742 208.68 148.482 201.585ZM102.557 223.542C103.173 223.618 103.89 223.506 104.707 223.205C105.607 222.892 106.511 222.318 107.417 221.486C108.323 220.653 109.219 219.476 110.104 217.956C110.975 216.351 111.69 214.296 112.248 211.79L114.762 198.052C115.299 194.859 115.386 192.383 115.025 190.626C114.735 188.771 114.264 187.42 113.613 186.572C112.949 185.639 112.302 185.093 111.672 184.932C111.029 184.687 110.666 184.571 110.581 184.585C110.484 184.513 110.091 184.489 109.404 184.51C108.787 184.434 108.048 184.679 107.187 185.245C106.312 185.728 105.426 186.687 104.528 188.123C103.701 189.462 102.992 191.559 102.403 194.415L98.8949 215.046C98.7476 215.76 98.6621 216.594 98.6387 217.548C98.602 218.417 98.6984 219.309 98.9279 220.223C99.1441 221.053 99.5224 221.814 100.063 222.507C100.674 223.102 101.505 223.447 102.557 223.542Z" fill="black"/>
<path d="M190.121 193.254C190.666 190.664 191.884 188.789 193.776 187.629C195.667 186.469 197.573 185.955 199.494 186.086C201.415 186.217 203.042 186.956 204.375 188.302C205.78 189.551 206.281 191.372 205.878 193.767C203.889 204.789 200.14 213.667 194.63 220.403C189.106 227.054 182.256 231.02 174.078 232.3C170.79 232.815 167.598 232.839 164.502 232.374C161.406 231.908 158.582 230.968 156.028 229.554C153.559 228.127 151.452 226.254 149.708 223.936C147.963 221.618 146.84 218.857 146.338 215.653C145.929 213.04 145.993 210.136 146.53 206.943L146.55 207.069C147.055 204.226 147.551 201.601 148.038 199.192C148.511 196.7 148.949 194.256 149.352 191.861C149.839 189.453 150.325 187.045 150.812 184.636C151.286 182.144 151.775 179.476 152.28 176.633L148.107 177.286C146.252 177.577 144.7 177.042 143.451 175.683C142.189 174.239 141.497 172.577 141.375 170.696C141.324 168.717 141.939 166.85 143.219 165.095C144.486 163.256 146.721 162.086 149.925 161.584L155.236 160.753L160.671 132.566C161.181 129.204 162.495 126.839 164.613 125.471C166.816 124.09 169.059 123.522 171.343 123.77C173.614 123.932 175.57 124.836 177.209 126.479C178.919 128.025 179.586 130.08 179.21 132.644L174.585 157.725L180.275 156.834C182.973 156.412 184.996 156.916 186.342 158.346C187.676 159.692 188.326 161.361 188.292 163.353C188.329 165.247 187.63 167.127 186.195 168.993C184.746 170.774 182.589 171.889 179.722 172.338L171.502 173.625L164.753 209.143C164.535 209.955 164.511 210.909 164.683 212.005C164.947 213.691 165.803 215.025 167.253 216.007C168.786 216.977 170.691 217.283 172.968 216.927C176.677 216.346 180.087 214.128 183.198 210.273C186.38 206.32 188.687 200.647 190.121 193.254Z" fill="black"/>
<path d="M239.191 187.128C238.531 190.082 237.171 192.152 235.111 193.338C233.122 194.427 231.063 194.792 228.934 194.434C226.889 194.063 225.174 193.036 223.787 191.353C222.388 189.586 222.038 187.351 222.738 184.651L236.564 112.396C236.98 110.085 237.763 108.192 238.914 106.716C240.136 105.143 241.509 103.978 243.031 103.221C244.554 102.465 246.143 102.13 247.797 102.216C249.439 102.219 250.893 102.682 252.161 103.606C253.499 104.433 254.518 105.699 255.216 107.404C255.915 109.108 256.118 111.235 255.827 113.786L239.191 187.128ZM224.597 203.146C227.547 202.684 230.193 203.306 232.533 205.013C234.86 206.635 236.254 208.922 236.716 211.873C237.164 214.739 236.535 217.342 234.829 219.682C233.122 222.023 230.793 223.423 227.843 223.885C224.976 224.334 222.373 223.705 220.033 221.998C217.693 220.292 216.299 218.005 215.85 215.139C215.388 212.188 216.017 209.585 217.737 207.329C219.444 204.989 221.73 203.594 224.597 203.146Z" fill="black"/>
<path d="M231.534 1.44119C234.897 2.40611 237.469 4.18305 239.251 6.77201C241.015 9.249 242.143 12.0551 242.633 15.1902C243.089 18.1015 243.1 20.7381 242.667 23.1002L242.64 22.9322C241.638 28.2513 239.116 32.6609 235.075 36.1612C231.017 39.5495 225.965 41.7168 219.918 42.6631C217.679 43.0136 215.404 43.1401 213.095 43.0427C210.656 42.8509 208.874 42.0973 207.751 40.7819C206.722 39.337 206.317 37.8516 206.537 36.3259C206.757 34.8002 207.525 33.4756 208.84 32.352C210.156 31.2284 211.977 30.7713 214.304 30.9807C215.812 31.0887 217.268 30.8609 218.671 30.2972C220.057 29.6215 221.183 28.7569 222.051 27.7034C220.955 27.3013 219.834 26.7312 218.686 25.9932C217.538 25.2551 216.54 24.3788 215.693 23.3643L215.861 23.338C214.185 21.4208 213.153 19.2306 212.768 16.7673C212.4 14.4159 212.609 12.0889 213.396 9.78618C214.295 7.46597 215.703 5.46756 217.62 3.79095C218.746 2.92636 219.852 2.29447 220.936 1.89528C222.116 1.3666 223.321 1.00588 224.553 0.81311C226.568 0.497667 228.654 0.630103 230.809 1.21042L230.615 1.06875L231.534 1.44119Z" fill="black"/>
</svg>
