<svg width="256" height="252" viewBox="0 0 256 252" fill="none" xmlns="http://www.w3.org/2000/svg">
<path d="M51.4017 21.2115C54.6318 20.8787 57.7236 21.0426 60.6773 21.7032C63.7021 22.2662 66.3713 23.3168 68.6849 24.8549C71.0829 26.3797 73.0832 28.3987 74.6857 30.9118C76.3593 33.3274 77.4667 36.2635 78.0077 39.7201C78.4563 42.5865 78.3478 45.7561 77.6821 49.2288L72.0658 78.7402C71.266 83.0112 69.9167 86.8069 68.0179 90.1271C66.2034 93.4341 64.0569 96.2748 61.5782 98.6493C59.0996 101.024 56.3797 102.961 53.4187 104.461C50.4445 105.877 47.3977 106.828 44.2784 107.317C40.7375 107.871 37.315 107.802 34.0109 107.11C30.6936 106.333 27.774 105.063 25.2522 103.298L20.5201 128.525C20.0597 131.102 19.1697 133.142 17.8501 134.644C16.5437 136.23 15.0316 137.331 13.314 137.945C11.6938 138.63 10.0011 138.852 8.23575 138.61C6.48363 138.453 4.96722 137.869 3.6865 136.861C2.33466 135.949 1.30943 134.642 0.610802 132.937C-0.087828 131.233 -0.187143 129.218 0.312858 126.894L18.1359 31.3412C18.6594 28.0635 19.9116 25.5787 21.8924 23.8867C23.9444 22.0972 26.1086 21.0243 28.3848 20.6681C30.6611 20.3118 32.7835 20.6274 34.7518 21.6149C36.7202 22.6024 37.9049 24.1013 38.3059 26.1115C40.0338 24.4591 42.1426 23.3085 44.6322 22.6597C47.193 21.9134 49.4495 21.4307 51.4017 21.2115ZM56.7886 53.1467C57.2226 50.4012 57.2102 48.1143 56.7513 46.2859C56.2792 44.3732 55.6135 42.8795 54.7543 41.8048C53.882 40.6458 52.8516 39.8569 51.6632 39.4383C50.4749 39.0197 49.3195 38.8119 48.1971 38.8148C45.3754 38.9973 42.8477 39.9543 40.6139 41.6859C38.3801 43.4175 36.6195 46.241 35.3322 50.1565L30.4109 77.4862L30.3713 77.2332C30.3662 77.7523 30.3611 78.2713 30.3559 78.7903C30.4219 79.2119 30.4879 79.6334 30.5538 80.0549C31.0025 82.9214 32.3415 85.1302 34.5708 86.6815C36.8845 88.2196 39.4324 88.7709 42.2145 88.3355C44.6594 87.9528 46.8525 86.789 48.7938 84.8441C50.735 82.8992 52.003 80.2392 52.5976 76.864L56.7886 53.1467Z" fill="#22C55E"/>
<path d="M137.838 83.3453C138.169 81.0478 139.232 79.2836 141.026 78.0527C142.904 76.8086 144.839 76.2035 146.831 76.2372C148.894 76.1735 150.628 76.7658 152.032 78.0143C153.521 79.2496 154.042 81.1978 153.595 83.859C152.437 90.259 150.502 95.8306 147.79 100.574C145.064 105.233 141.84 109.192 138.118 112.452C134.396 115.712 130.351 118.289 125.983 120.181C121.615 122.074 117.24 123.364 112.856 124.05C108.219 124.776 103.827 124.858 99.6795 124.298C95.5456 123.822 91.8383 122.762 88.5577 121.116C85.3481 119.372 82.6628 117.115 80.5017 114.344C78.3405 111.573 76.963 108.29 76.3693 104.497C76.1449 103.063 76.0405 101.568 76.0559 100.011C76.1556 98.4407 76.3396 96.8572 76.608 95.2605L80.6846 72.468C81.2924 69.1771 82.3389 66.2063 83.8242 63.5554C85.2963 60.8202 87.0873 58.4669 89.1972 56.4956C91.2939 54.44 93.6318 52.8217 96.2109 51.6407C98.8611 50.3622 101.577 49.5053 104.359 49.0698C107.9 48.5156 111.232 48.5556 114.354 49.1898C117.476 49.824 120.201 50.9522 122.528 52.5746C124.926 54.0995 126.877 56.0829 128.382 58.5249C129.958 60.8694 130.984 63.5592 131.459 66.5942C131.789 68.7019 131.815 71.0731 131.536 73.7079C131.142 76.7063 130.279 79.4755 128.949 82.0157C127.704 84.5427 126.11 86.7787 124.169 88.7236C122.228 90.6685 119.981 92.3157 117.428 93.6654C114.947 94.9175 112.273 95.7678 109.406 96.2165C106.877 96.6123 104.422 96.6512 102.04 96.333C99.7421 96.0016 97.5736 95.3909 95.5341 94.5009L94.8985 97.062C94.6485 98.2239 94.6225 99.4372 94.8204 100.702C95.2822 103.653 97.0204 105.928 100.035 107.53C103.049 109.131 106.875 109.568 111.512 108.843C114.21 108.42 116.933 107.606 119.68 106.398C122.499 105.093 125.083 103.393 127.433 101.298C129.867 99.1898 131.975 96.6573 133.758 93.7007C135.625 90.7309 136.985 87.2791 137.838 83.3453ZM106.335 64.178C104.902 64.4023 103.555 65.1746 102.293 66.4949C101.102 67.7177 100.279 69.358 99.8241 71.4159L98.356 79.4191C99.6419 79.9089 101.063 80.1614 102.62 80.1768C104.262 80.1791 105.822 79.935 107.299 79.4445C108.777 78.9541 110.041 78.195 111.089 77.1672C112.208 76.0419 112.889 74.5966 113.131 72.8313C113.323 71.8511 113.333 70.813 113.162 69.717C112.885 67.9466 112.099 66.5148 110.805 65.4218C109.596 64.3155 108.106 63.9009 106.335 64.178Z" fill="#22C55E"/>
<path d="M202.547 72.4403C202.847 70.4932 203.501 68.8792 204.51 67.5985C205.519 66.3178 206.629 65.4099 207.841 64.8747C209.124 64.2421 210.466 63.9888 211.868 64.1149C213.256 64.1567 214.48 64.5266 215.54 65.2245C216.67 65.8249 217.509 66.7732 218.058 68.0693C218.606 69.3654 218.724 70.9449 218.411 72.8077C217.24 79.1234 215.353 84.7305 212.752 89.6291C210.137 94.4433 206.855 98.5846 202.906 102.053C199.042 105.508 194.56 108.326 189.46 110.506C184.359 112.686 178.732 114.258 172.578 115.221C171.06 115.458 169.452 115.667 167.752 115.847C166.137 116.013 164.516 116.137 162.888 116.219C160.358 116.615 158.023 116.592 155.881 116.15C153.738 115.708 151.725 114.986 149.841 113.986C149.412 116.212 148.968 118.614 148.507 121.191C148.06 123.852 147.577 126.562 147.059 129.32C146.625 132.066 146.136 134.734 145.591 137.324C145.144 139.985 144.706 142.429 144.277 144.655C143.977 146.602 143.238 148.229 142.061 149.536C140.883 150.844 139.52 151.791 137.971 152.379C136.435 153.051 134.833 153.302 133.166 153.131C131.511 153.045 130.057 152.581 128.802 151.741C127.464 150.914 126.494 149.684 125.893 148.051C125.22 146.515 125.128 144.543 125.614 142.134L143.169 48.178C143.385 46.244 143.955 44.6433 144.879 43.3758C145.875 42.0108 147.014 41.0119 148.297 40.3793C149.651 39.6491 151.093 39.2074 152.624 39.0542C154.142 38.8167 155.53 38.8585 156.79 39.1796C158.049 39.5008 159.124 40.0235 160.015 40.7478C160.892 41.3878 161.362 42.1781 161.422 43.1186C162.671 41.714 164.196 40.698 165.998 40.0705C167.8 39.4429 169.544 38.9972 171.23 38.7333C173.675 38.3507 176.073 38.4937 178.423 39.1623C180.858 39.8177 183.05 40.8565 185 42.2788C186.95 43.701 188.574 45.5198 189.87 47.7353C191.238 49.8532 192.12 52.1768 192.516 54.706C192.872 56.9823 192.836 59.2337 192.407 61.4601C191.402 66.627 190.375 71.927 189.325 77.36C188.346 82.6955 187.347 87.9046 186.329 92.9872C186.226 93.4351 186.117 93.8409 186.001 94.2045C185.97 94.5549 185.838 95.0937 185.607 95.821C189.74 93.533 193.277 90.4745 196.219 86.6455C199.233 82.7191 201.342 77.984 202.547 72.4403ZM153.997 91.6991C153.576 94.5289 154.068 96.568 155.473 97.8165C156.864 98.9807 158.572 99.4045 160.595 99.0878C162.268 98.7396 163.784 97.9409 165.143 96.6917C166.573 95.345 167.474 93.6493 167.845 91.6047C168.305 89.0278 168.721 86.7171 169.092 84.6725C169.547 82.6147 169.925 80.6122 170.225 78.6651C170.609 76.7048 170.987 74.7023 171.358 72.6577C171.728 70.6131 172.095 68.2668 172.458 65.6188C172.919 63.042 172.644 61.012 171.635 59.5289C170.612 57.9615 169.118 57.2453 167.153 57.3801C165.369 57.5729 163.684 58.398 162.099 59.8554C160.513 61.3128 159.344 63.2233 158.591 65.5868L158.824 65.4207L153.997 91.6991Z" fill="#22C55E"/>
<path d="M83.6942 204.308C83.9464 201.505 85.0051 199.439 86.8701 198.111C88.7219 196.698 90.6504 196.051 92.6554 196.169C94.6473 196.202 96.3653 196.97 97.8095 198.471C99.3248 199.875 99.872 201.992 99.4512 204.822C98.4754 211.28 96.4666 217.208 93.4249 222.608C90.4675 227.994 86.7103 232.685 82.1533 236.68C77.6806 240.662 72.6188 243.916 66.9681 246.441C61.4016 248.954 55.5701 250.601 49.4736 251.382C43.9673 252.071 38.8124 251.971 34.0092 251.082C29.2902 250.179 25.1243 248.672 21.5116 246.56C17.97 244.35 15.0369 241.613 12.7123 238.35C10.4587 234.988 9.00871 231.242 8.36215 227.111C7.83435 223.739 7.75045 220.167 8.11044 216.397C8.45724 212.542 9.39162 208.855 10.9136 205.335C12.4223 201.73 14.5938 198.497 17.428 195.635C20.3333 192.675 24.074 190.362 28.6501 188.696C24.7419 185.248 22.3788 180.911 21.5607 175.684C21.1649 173.154 21.1931 170.3 21.6455 167.12L21.7797 166.321C22.4505 162.329 23.6997 158.722 25.5274 155.5C27.3551 152.277 29.557 149.514 32.1331 147.21C34.7936 144.894 37.6952 143.015 40.838 141.573C43.9809 140.131 47.1541 139.159 50.3578 138.657C54.3202 138.037 58.0799 138.053 61.6369 138.706C65.194 139.358 68.3598 140.547 71.1346 142.272C73.9094 143.997 76.1534 146.194 77.8666 148.863C79.651 151.434 80.7227 154.418 81.0819 157.817C81.3488 160.626 80.6735 162.934 79.0563 164.742C77.5102 166.452 75.6477 167.521 73.4689 167.948C71.2769 168.291 69.0505 167.862 66.7896 166.661C64.6131 165.447 63.0633 163.272 62.1404 160.134C61.4102 158.78 60.1097 157.645 58.2388 156.728C56.4391 155.714 54.5697 155.359 52.6306 155.663C48.4152 156.322 45.3805 158.179 43.5265 161.233C41.7567 164.274 41.1952 167.86 41.8417 171.991C42.3035 174.942 43.6821 177.404 45.9774 179.377C48.2596 181.265 51.2975 181.912 55.0914 181.319C58.1528 181.012 60.6585 181.57 62.6086 182.992C64.5454 184.33 65.854 186.069 66.5343 188.208C67.2989 190.334 67.3956 192.608 66.8245 195.029C66.3377 197.437 65.2303 199.468 63.5024 201.12C61.7745 202.773 59.393 203.836 56.3579 204.311C53.4072 204.773 49.7593 204.092 45.4142 202.267C43.8966 202.504 42.2725 202.888 40.5416 203.418C38.8818 203.851 37.3038 204.53 35.8076 205.455C34.3113 206.38 32.9521 207.629 31.73 209.202C30.579 210.678 29.718 212.627 29.1469 215.048C27.9841 221.967 29.146 227.183 32.6326 230.697C36.1903 234.114 41.7315 235.578 49.256 235.092C52.7969 234.537 56.4273 233.451 60.147 231.832C63.8536 230.129 67.319 227.989 70.5432 225.412C73.7675 222.834 76.5753 219.803 78.9667 216.32C81.3449 212.752 82.9208 208.748 83.6942 204.308Z" fill="#22C55E"/>
<path d="M148.273 200.938C148.573 198.991 149.227 197.377 150.236 196.096C151.244 194.816 152.397 193.901 153.693 193.353C155.06 192.707 156.438 192.405 157.827 192.447C159.299 192.475 160.572 192.881 161.645 193.663C162.717 194.445 163.499 195.575 163.989 197.053C164.466 198.447 164.442 200.221 163.915 202.377C163.621 203.805 163.329 204.973 163.039 205.882C162.82 206.694 162.551 207.729 162.23 208.989C160.75 213.884 158.99 218.09 156.949 221.605C154.895 225.036 152.664 227.89 150.256 230.167C147.836 232.36 145.294 234.053 142.63 235.247C139.98 236.526 137.348 237.37 134.735 237.779C133.723 237.937 132.403 238.057 130.775 238.139C129.231 238.208 127.57 238.079 125.791 237.753C124.026 237.511 122.263 237.01 120.503 236.249C118.827 235.475 117.4 234.359 116.222 232.902C114.262 235.282 111.935 237.244 109.24 238.789C106.643 240.405 103.911 241.437 101.044 241.885C98.2623 242.321 95.5696 242.224 92.9664 241.595C90.4474 240.953 88.1708 239.927 86.1364 238.518C84.1732 237.012 82.5076 235.199 81.1397 233.081C79.7585 230.879 78.8634 228.471 78.4544 225.858C78.2696 224.677 78.218 223.519 78.2994 222.384C78.2964 221.262 78.4134 220.077 78.6502 218.831L85.2925 183.458C86.3951 178.363 88.7008 174.331 92.2094 171.363C95.8024 168.383 99.7065 166.562 103.922 165.903C107.463 165.348 110.528 165.344 113.118 165.888C115.695 166.349 117.682 166.902 119.078 167.547C120.306 165.454 122.06 163.971 124.341 163.095C126.694 162.123 128.941 161.857 131.083 162.299C133.226 162.741 135.003 163.888 136.416 165.74C137.815 167.508 138.218 170.079 137.623 173.454L129.793 216.138C129.609 217.722 129.589 218.977 129.735 219.905C130.065 222.012 131.368 222.888 133.644 222.532C136.51 222.083 139.23 220.146 141.803 216.72C144.377 213.294 146.533 208.034 148.273 200.938ZM102.348 222.895C102.964 222.972 103.681 222.86 104.498 222.559C105.399 222.245 106.302 221.672 107.208 220.839C108.114 220.006 109.01 218.83 109.895 217.309C110.766 215.705 111.481 213.649 112.039 211.144L114.553 197.406C115.09 194.212 115.177 191.737 114.816 189.98C114.526 188.125 114.055 186.773 113.404 185.925C112.74 184.993 112.093 184.446 111.463 184.286C110.82 184.041 110.457 183.925 110.372 183.938C110.275 183.867 109.882 183.842 109.195 183.863C108.578 183.787 107.839 184.032 106.978 184.599C106.103 185.081 105.217 186.041 104.319 187.477C103.492 188.815 102.783 190.913 102.194 193.769L98.6859 214.4C98.5386 215.114 98.4532 215.947 98.4297 216.901C98.393 217.771 98.4894 218.663 98.7189 219.577C98.9351 220.407 99.3134 221.168 99.8537 221.861C100.465 222.456 101.296 222.801 102.348 222.895Z" fill="#22C55E"/>
<path d="M189.912 192.607C190.457 190.017 191.675 188.142 193.567 186.982C195.458 185.823 197.364 185.308 199.285 185.44C201.206 185.571 202.833 186.31 204.166 187.656C205.571 188.904 206.072 190.726 205.669 193.121C203.68 204.142 199.931 213.021 194.421 219.757C188.897 226.408 182.047 230.374 173.869 231.654C170.581 232.168 167.389 232.193 164.293 231.727C161.197 231.262 158.373 230.322 155.819 228.908C153.35 227.48 151.243 225.607 149.499 223.289C147.754 220.971 146.631 218.21 146.129 215.007C145.72 212.393 145.784 209.49 146.321 206.296L146.341 206.423C146.846 203.58 147.342 200.954 147.829 198.546C148.302 196.053 148.74 193.61 149.143 191.215C149.63 188.806 150.116 186.398 150.603 183.99C151.077 181.497 151.566 178.83 152.071 175.987L147.898 176.64C146.043 176.93 144.491 176.396 143.242 175.036C141.98 173.593 141.288 171.931 141.166 170.049C141.115 168.071 141.73 166.204 143.01 164.449C144.277 162.61 146.512 161.439 149.716 160.938L155.027 160.107L160.462 131.919C160.972 128.557 162.286 126.192 164.404 124.824C166.607 123.443 168.85 122.876 171.134 123.123C173.405 123.286 175.361 124.189 177 125.833C178.71 127.379 179.377 129.434 179.001 131.997L174.376 157.078L180.066 156.188C182.764 155.765 184.787 156.269 186.133 157.7C187.467 159.046 188.117 160.715 188.083 162.706C188.12 164.601 187.421 166.481 185.986 168.347C184.537 170.128 182.38 171.243 179.513 171.692L171.293 172.978L164.544 208.497C164.326 209.308 164.302 210.262 164.474 211.358C164.738 213.044 165.594 214.379 167.044 215.361C168.577 216.33 170.482 216.637 172.759 216.28C176.468 215.7 179.878 213.482 182.989 209.626C186.171 205.674 188.478 200 189.912 192.607Z" fill="#22C55E"/>
<path d="M238.982 186.482C238.322 189.436 236.962 191.505 234.902 192.692C232.913 193.78 230.854 194.146 228.725 193.788C226.68 193.417 224.965 192.39 223.578 190.707C222.179 188.939 221.829 186.705 222.529 184.004L236.355 111.749C236.771 109.439 237.554 107.545 238.705 106.07C239.927 104.496 241.3 103.331 242.822 102.575C244.345 101.818 245.934 101.483 247.588 101.57C249.23 101.572 250.684 102.035 251.952 102.96C253.29 103.787 254.309 105.053 255.007 106.757C255.706 108.462 255.91 110.589 255.618 113.139L238.982 186.482ZM224.388 202.499C227.338 202.037 229.984 202.66 232.324 204.367C234.651 205.989 236.045 208.276 236.507 211.226C236.956 214.093 236.326 216.696 234.62 219.036C232.913 221.376 230.584 222.777 227.634 223.239C224.767 223.687 222.164 223.058 219.824 221.352C217.484 219.645 216.09 217.358 215.641 214.492C215.179 211.541 215.808 208.938 217.528 206.682C219.235 204.342 221.521 202.948 224.388 202.499Z" fill="#22C55E"/>
<path d="M231.325 0.794702C234.688 1.75963 237.26 3.53657 239.042 6.12553C240.806 8.60252 241.934 11.4086 242.424 14.5438C242.88 17.455 242.891 20.0916 242.458 22.4537L242.431 22.2858C241.429 27.6048 238.907 32.0145 234.866 35.5147C230.808 38.903 225.756 41.0703 219.709 42.0166C217.47 42.3671 215.195 42.4936 212.886 42.3963C210.447 42.2044 208.665 41.4508 207.542 40.1354C206.513 38.6905 206.108 37.2052 206.328 35.6794C206.548 34.1537 207.316 32.8291 208.632 31.7055C209.947 30.5819 211.768 30.1248 214.095 30.3342C215.603 30.4423 217.059 30.2144 218.462 29.6507C219.848 28.975 220.974 28.1104 221.842 27.0569C220.746 26.6548 219.625 26.0847 218.477 25.3467C217.329 24.6086 216.331 23.7323 215.484 22.7178L215.652 22.6915C213.976 20.7744 212.944 18.5841 212.559 16.1208C212.191 13.7694 212.4 11.4424 213.187 9.13969C214.086 6.81949 215.494 4.82108 217.411 3.14447C218.537 2.27988 219.643 1.64799 220.728 1.2488C221.907 0.720119 223.112 0.359396 224.344 0.166626C226.359 -0.148817 228.445 -0.0163813 230.6 0.563933L230.406 0.422266L231.325 0.794702Z" fill="#22C55E"/>
</svg>
