<svg width="314" height="324" viewBox="0 0 314 324" fill="none" xmlns="http://www.w3.org/2000/svg">
<rect width="310.513" height="323.047" transform="translate(3)" fill="black"/>
<path d="M68.6108 52.858C71.8408 52.5252 74.9327 52.6891 77.8864 53.3497C80.9111 53.9127 83.5804 54.9633 85.894 56.5014C88.292 58.0263 90.2922 60.0452 91.8948 62.5583C93.5684 64.9739 94.6758 67.91 95.2167 71.3666C95.6654 74.233 95.5568 77.4026 94.8911 80.8753L89.2749 110.387C88.475 114.658 87.1257 118.453 85.227 121.774C83.4125 125.081 81.2659 127.921 78.7873 130.296C76.3086 132.67 73.5888 134.608 70.6278 136.107C67.6536 137.523 64.6068 138.475 61.4874 138.963C57.9465 139.517 54.524 139.448 51.22 138.756C47.9027 137.98 44.9831 136.709 42.4612 134.945L37.7292 160.172C37.2688 162.749 36.3787 164.788 35.0591 166.29C33.7527 167.877 32.2407 168.977 30.523 169.591C28.9029 170.277 27.2101 170.499 25.4448 170.257C23.6927 170.099 22.1763 169.516 20.8956 168.507C19.5437 167.596 18.5185 166.288 17.8199 164.584C17.1212 162.879 17.0219 160.865 17.5219 158.541L35.345 62.9877C35.8685 59.71 37.1207 57.2252 39.1015 55.5332C41.1535 53.7437 43.3176 52.6708 45.5939 52.3146C47.8702 51.9583 49.9925 52.2739 51.9609 53.2614C53.9293 54.249 55.114 55.7478 55.5149 57.758C57.2429 56.1056 59.3517 54.955 61.8413 54.3062C64.402 53.5599 66.6585 53.0772 68.6108 52.858ZM73.9977 84.7932C74.4317 82.0477 74.4193 79.7608 73.9603 77.9324C73.4882 76.0197 72.8226 74.526 71.9634 73.4513C71.091 72.2923 70.0607 71.5034 68.8723 71.0848C67.684 70.6662 66.5286 70.4584 65.4062 70.4613C62.5845 70.6438 60.0567 71.6008 57.823 73.3324C55.5892 75.064 53.8286 77.8875 52.5412 81.803L47.62 109.133L47.5804 108.88C47.5753 109.399 47.5701 109.918 47.565 110.437C47.631 110.858 47.6969 111.28 47.7629 111.701C48.2116 114.568 49.5505 116.777 51.7799 118.328C54.0936 119.866 56.6414 120.417 59.4236 119.982C61.8685 119.599 64.0616 118.436 66.0028 116.491C67.9441 114.546 69.2121 111.886 69.8066 108.51L73.9977 84.7932ZM155.047 114.992C155.378 112.694 156.441 110.93 158.235 109.699C160.113 108.455 162.048 107.85 164.04 107.884C166.103 107.82 167.837 108.412 169.241 109.661C170.73 110.896 171.251 112.844 170.804 115.506C169.646 121.905 167.711 127.477 164.999 132.22C162.273 136.879 159.049 140.839 155.327 144.099C151.605 147.359 147.56 149.935 143.192 151.828C138.825 153.721 134.449 155.01 130.065 155.696C125.428 156.422 121.036 156.505 116.889 155.945C112.755 155.469 109.047 154.408 105.767 152.762C102.557 151.019 99.8719 148.762 97.7107 145.99C95.5496 143.219 94.1721 139.937 93.5783 136.143C93.354 134.71 93.2496 133.215 93.265 131.658C93.3647 130.087 93.5487 128.504 93.8171 126.907L97.8937 104.115C98.5015 100.824 99.548 97.8528 101.033 95.2019C102.505 92.4667 104.296 90.1134 106.406 88.1421C108.503 86.0865 110.841 84.4682 113.42 83.2872C116.07 82.0087 118.786 81.1518 121.568 80.7163C125.109 80.1621 128.441 80.2021 131.563 80.8363C134.685 81.4705 137.41 82.5987 139.737 84.2211C142.135 85.746 144.086 87.7294 145.591 90.1714C147.168 92.5159 148.193 95.2057 148.668 98.2407C148.998 100.348 149.024 102.72 148.745 105.354C148.351 108.353 147.488 111.122 146.159 113.662C144.913 116.189 143.32 118.425 141.378 120.37C139.437 122.315 137.19 123.962 134.637 125.312C132.156 126.564 129.482 127.414 126.615 127.863C124.086 128.259 121.631 128.298 119.249 127.979C116.951 127.648 114.783 127.037 112.743 126.147L112.108 128.708C111.858 129.87 111.832 131.084 112.029 132.348C112.491 135.299 114.229 137.575 117.244 139.176C120.258 140.777 124.084 141.215 128.721 140.489C131.419 140.067 134.142 139.252 136.889 138.045C139.708 136.74 142.292 135.04 144.642 132.945C147.076 130.836 149.184 128.304 150.967 125.347C152.834 122.377 154.194 118.926 155.047 114.992ZM123.544 95.8245C122.111 96.0488 120.764 96.8211 119.502 98.1414C118.311 99.3642 117.488 101.005 117.033 103.062L115.565 111.066C116.851 111.555 118.272 111.808 119.83 111.823C121.471 111.826 123.031 111.581 124.509 111.091C125.987 110.601 127.25 109.841 128.298 108.814C129.417 107.688 130.098 106.243 130.34 104.478C130.532 103.498 130.542 102.46 130.371 101.364C130.094 99.5931 129.308 98.1613 128.014 97.0683C126.805 95.962 125.315 95.5474 123.544 95.8245ZM219.756 104.087C220.056 102.14 220.71 100.526 221.719 99.245C222.728 97.9643 223.838 97.0564 225.05 96.5212C226.333 95.8886 227.675 95.6353 229.077 95.7614C230.465 95.8032 231.689 96.173 232.749 96.871C233.879 97.4714 234.718 98.4197 235.267 99.7158C235.815 101.012 235.933 102.591 235.62 104.454C234.449 110.77 232.563 116.377 229.961 121.276C227.346 126.09 224.064 130.231 220.115 133.699C216.251 137.154 211.769 139.972 206.669 142.152C201.568 144.332 195.941 145.904 189.787 146.867C188.269 147.105 186.661 147.313 184.961 147.493C183.346 147.659 181.725 147.784 180.097 147.866C177.567 148.262 175.232 148.239 173.09 147.796C170.947 147.354 168.934 146.633 167.05 145.632C166.621 147.859 166.177 150.26 165.716 152.837C165.269 155.498 164.786 158.208 164.268 160.967C163.834 163.712 163.345 166.38 162.8 168.97C162.353 171.631 161.915 174.075 161.486 176.302C161.186 178.249 160.447 179.876 159.27 181.183C158.093 182.49 156.729 183.438 155.18 184.026C153.644 184.698 152.043 184.948 150.375 184.778C148.72 184.691 147.266 184.228 146.011 183.388C144.673 182.561 143.703 181.331 143.102 179.697C142.429 178.161 142.337 176.189 142.824 173.781L160.378 79.8245C160.594 77.8906 161.164 76.2898 162.088 75.0223C163.084 73.6573 164.223 72.6584 165.506 72.0258C166.86 71.2956 168.302 70.8539 169.833 70.7007C171.351 70.4632 172.739 70.505 173.999 70.8261C175.258 71.1473 176.333 71.67 177.224 72.3943C178.101 73.0343 178.571 73.8246 178.632 74.7652C179.88 73.3605 181.405 72.3445 183.207 71.717C185.009 71.0894 186.753 70.6437 188.439 70.3798C190.884 69.9972 193.282 70.1402 195.632 70.8088C198.067 71.4642 200.259 72.503 202.209 73.9253C204.159 75.3475 205.783 77.1663 207.08 79.3818C208.447 81.4997 209.329 83.8233 209.725 86.3525C210.081 88.6288 210.045 90.8802 209.616 93.1066C208.611 98.2735 207.584 103.573 206.534 109.006C205.555 114.342 204.557 119.551 203.538 124.634C203.436 125.082 203.326 125.487 203.21 125.851C203.179 126.201 203.047 126.74 202.816 127.467C206.949 125.179 210.487 122.121 213.429 118.292C216.442 114.366 218.551 109.63 219.756 104.087ZM171.206 123.346C170.785 126.175 171.277 128.215 172.682 129.463C174.073 130.627 175.781 131.051 177.804 130.734C179.477 130.386 180.993 129.587 182.352 128.338C183.782 126.991 184.683 125.296 185.054 123.251C185.515 120.674 185.93 118.364 186.301 116.319C186.756 114.261 187.134 112.259 187.434 110.312C187.818 108.351 188.196 106.349 188.567 104.304C188.938 102.26 189.304 99.9133 189.667 97.2653C190.128 94.6885 189.853 92.6585 188.844 91.1754C187.821 89.608 186.327 88.8918 184.362 89.0266C182.578 89.2194 180.893 90.0445 179.308 91.5019C177.722 92.9593 176.553 94.8698 175.8 97.2333L176.033 97.0672L171.206 123.346Z" fill="white"/>
<path d="M100.903 235.955C101.156 233.151 102.214 231.086 104.079 229.757C105.931 228.345 107.859 227.697 109.864 227.815C111.856 227.849 113.574 228.617 115.019 230.118C116.534 231.522 117.081 233.639 116.66 236.468C115.684 242.926 113.676 248.855 110.634 254.254C107.677 259.64 103.919 264.331 99.3624 268.326C94.8897 272.309 89.8279 275.562 84.1771 278.088C78.6107 280.6 72.7792 282.247 66.6827 283.028C61.1763 283.718 56.0215 283.617 51.2182 282.728C46.4993 281.826 42.3334 280.318 38.7207 278.206C35.1791 275.997 32.246 273.26 29.9213 269.996C27.6678 266.635 26.2178 262.889 25.5712 258.758C25.0434 255.385 24.9595 251.814 25.3195 248.044C25.6663 244.189 26.6007 240.501 28.1227 236.981C29.6314 233.376 31.8029 230.143 34.6371 227.281C37.5424 224.322 41.2831 222.009 45.8592 220.342C41.951 216.895 39.5879 212.557 38.7698 207.33C38.374 204.801 38.4022 201.946 38.8546 198.766L38.9887 197.968C39.6596 193.976 40.9088 190.369 42.7365 187.146C44.5641 183.923 46.766 181.16 49.3422 178.857C52.0026 176.54 54.9043 174.661 58.0471 173.219C61.1899 171.777 64.3632 170.805 67.5669 170.304C71.5293 169.684 75.289 169.7 78.846 170.352C82.403 171.005 85.5689 172.194 88.3437 173.919C91.1185 175.644 93.3625 177.841 95.0757 180.509C96.8601 183.08 97.9318 186.065 98.291 189.464C98.5578 192.272 97.8826 194.58 96.2654 196.388C94.7192 198.098 92.8568 199.167 90.678 199.595C88.486 199.938 86.2596 199.509 83.9987 198.308C81.8221 197.094 80.2724 194.918 79.3494 191.78C78.6193 190.426 77.3188 189.291 75.4479 188.375C73.6481 187.361 71.7787 187.006 69.8397 187.309C65.6243 187.969 62.5896 189.826 60.7356 192.88C58.9658 195.921 58.4042 199.507 59.0508 203.638C59.5126 206.588 60.8912 209.05 63.1865 211.023C65.4686 212.912 68.5066 213.559 72.3004 212.965C75.3619 212.659 77.8676 213.217 79.8177 214.639C81.7545 215.977 83.0631 217.715 83.7434 219.855C84.508 221.981 84.6047 224.254 84.0336 226.676C83.5468 229.084 82.4394 231.114 80.7115 232.767C78.9835 234.419 76.602 235.483 73.567 235.958C70.6163 236.42 66.9683 235.738 62.6233 233.913C61.1057 234.151 59.4815 234.535 57.7507 235.065C56.0909 235.497 54.5129 236.176 53.0166 237.101C51.5204 238.026 50.1612 239.276 48.9391 240.849C47.7881 242.325 46.927 244.273 46.3559 246.695C45.1932 253.614 46.3551 258.83 49.8417 262.344C53.3994 265.76 58.9405 267.225 66.4651 266.738C70.006 266.184 73.6363 265.098 77.3561 263.479C81.0627 261.776 84.5281 259.636 87.7523 257.058C90.9765 254.481 93.7844 251.45 96.1758 247.966C98.554 244.398 100.13 240.394 100.903 235.955ZM165.482 232.585C165.782 230.637 166.436 229.024 167.445 227.743C168.454 226.462 169.606 225.548 170.902 224.999C172.269 224.353 173.647 224.051 175.036 224.093C176.509 224.122 177.781 224.527 178.854 225.309C179.926 226.092 180.708 227.222 181.198 228.7C181.675 230.093 181.651 231.868 181.124 234.023C180.83 235.451 180.538 236.62 180.248 237.529C180.03 238.34 179.76 239.376 179.439 240.635C177.959 245.531 176.199 249.736 174.158 253.252C172.104 256.682 169.873 259.536 167.465 261.813C165.045 264.006 162.503 265.7 159.839 266.894C157.189 268.172 154.557 269.016 151.944 269.425C150.932 269.583 149.612 269.704 147.984 269.786C146.44 269.855 144.779 269.726 143 269.4C141.235 269.158 139.472 268.656 137.712 267.895C136.036 267.121 134.609 266.006 133.431 264.549C131.471 266.929 129.144 268.891 126.449 270.435C123.852 272.051 121.12 273.083 118.253 273.532C115.471 273.967 112.779 273.871 110.175 273.242C107.656 272.599 105.38 271.574 103.346 270.165C101.382 268.658 99.7167 266.846 98.3487 264.728C96.9676 262.526 96.0725 260.118 95.6634 257.504C95.4787 256.324 95.427 255.166 95.5084 254.03C95.5055 252.908 95.6225 251.724 95.8593 250.477L102.502 215.105C103.604 210.009 105.91 205.977 109.418 203.01C113.011 200.029 116.916 198.209 121.131 197.549C124.672 196.995 127.737 196.99 130.327 197.535C132.904 197.995 134.891 198.548 136.287 199.193C137.515 197.101 139.269 195.617 141.55 194.742C143.903 193.769 146.15 193.504 148.292 193.946C150.435 194.388 152.212 195.535 153.625 197.387C155.024 199.154 155.427 201.726 154.832 205.101L147.002 247.785C146.818 249.368 146.799 250.624 146.944 251.551C147.274 253.659 148.577 254.535 150.853 254.178C153.719 253.73 156.439 251.792 159.012 248.367C161.586 244.941 163.742 239.68 165.482 232.585ZM119.557 254.542C120.173 254.618 120.89 254.506 121.707 254.206C122.608 253.892 123.511 253.318 124.417 252.486C125.323 251.653 126.219 250.476 127.104 248.956C127.975 247.351 128.69 245.296 129.248 242.79L131.762 229.052C132.299 225.859 132.386 223.383 132.025 221.626C131.735 219.771 131.264 218.42 130.613 217.572C129.949 216.639 129.302 216.093 128.672 215.932C128.029 215.687 127.666 215.571 127.581 215.585C127.484 215.513 127.091 215.489 126.404 215.51C125.787 215.434 125.048 215.679 124.187 216.245C123.312 216.728 122.426 217.687 121.528 219.123C120.701 220.462 119.993 222.559 119.403 225.415L115.895 246.046C115.748 246.76 115.662 247.594 115.639 248.548C115.602 249.417 115.698 250.309 115.928 251.223C116.144 252.053 116.522 252.814 117.063 253.507C117.674 254.102 118.506 254.447 119.557 254.542ZM207.122 224.254C207.666 221.664 208.884 219.789 210.776 218.629C212.667 217.469 214.573 216.955 216.494 217.086C218.415 217.217 220.042 217.956 221.375 219.302C222.78 220.551 223.281 222.372 222.878 224.767C220.889 235.789 217.14 244.667 211.63 251.403C206.107 258.054 199.256 262.02 191.078 263.3C187.79 263.815 184.598 263.839 181.502 263.374C178.407 262.908 175.582 261.968 173.029 260.554C170.559 259.127 168.453 257.254 166.708 254.936C164.963 252.618 163.84 249.857 163.339 246.653C162.929 244.04 162.993 241.136 163.53 237.943L163.55 238.069C164.055 235.226 164.551 232.601 165.038 230.192C165.511 227.7 165.949 225.256 166.352 222.861C166.839 220.453 167.325 218.045 167.812 215.636C168.286 213.144 168.775 210.476 169.28 207.633L165.107 208.286C163.252 208.577 161.7 208.042 160.451 206.683C159.189 205.239 158.497 203.577 158.375 201.696C158.325 199.717 158.939 197.85 160.219 196.095C161.486 194.256 163.721 193.086 166.925 192.584L172.236 191.753L177.671 163.566C178.181 160.204 179.496 157.839 181.614 156.471C183.816 155.09 186.059 154.523 188.343 154.77C190.615 154.932 192.57 155.836 194.209 157.479C195.919 159.025 196.586 161.08 196.21 163.644L191.585 188.725L197.276 187.834C199.973 187.412 201.996 187.916 203.342 189.346C204.676 190.692 205.326 192.361 205.292 194.353C205.329 196.247 204.63 198.127 203.195 199.993C201.746 201.774 199.589 202.89 196.722 203.338L188.502 204.625L181.753 240.143C181.535 240.955 181.511 241.909 181.683 243.005C181.947 244.691 182.804 246.025 184.253 247.007C185.786 247.977 187.691 248.283 189.968 247.927C193.677 247.346 197.087 245.128 200.198 241.273C203.38 237.32 205.687 231.647 207.122 224.254ZM256.192 218.128C255.531 221.082 254.171 223.152 252.111 224.338C250.122 225.427 248.063 225.792 245.934 225.434C243.889 225.063 242.174 224.036 240.788 222.353C239.388 220.586 239.038 218.351 239.739 215.651L253.564 143.396C253.98 141.085 254.763 139.192 255.914 137.716C257.136 136.143 258.509 134.978 260.031 134.221C261.554 133.465 263.143 133.13 264.797 133.216C266.439 133.219 267.893 133.682 269.161 134.606C270.499 135.433 271.518 136.699 272.217 138.404C272.915 140.108 273.119 142.236 272.827 144.786L256.192 218.128ZM241.597 234.146C244.547 233.684 247.193 234.306 249.533 236.013C251.86 237.635 253.254 239.922 253.716 242.873C254.165 245.739 253.536 248.342 251.829 250.682C250.122 253.023 247.793 254.423 244.843 254.885C241.976 255.334 239.373 254.705 237.033 252.998C234.693 251.292 233.299 249.005 232.85 246.139C232.388 243.188 233.017 240.585 234.737 238.329C236.444 235.989 238.73 234.594 241.597 234.146Z" fill="white"/>
<path d="M248.534 32.4412C251.897 33.4061 254.469 35.1831 256.251 37.772C258.015 40.249 259.143 43.0551 259.633 46.1903C260.089 49.1015 260.1 51.7381 259.667 54.1002L259.641 53.9323C258.638 59.2513 256.116 63.661 252.075 67.1612C248.017 70.5495 242.965 72.7168 236.918 73.6631C234.679 74.0136 232.404 74.1401 230.095 74.0428C227.656 73.8509 225.875 73.0973 224.751 71.7819C223.722 70.337 223.317 68.8517 223.537 67.3259C223.757 65.8002 224.525 64.4756 225.841 63.352C227.156 62.2284 228.977 61.7713 231.304 61.9807C232.812 62.0888 234.268 61.8609 235.671 61.2972C237.057 60.6215 238.183 59.7569 239.051 58.7034C237.955 58.3013 236.834 57.7312 235.686 56.9932C234.538 56.2551 233.54 55.3788 232.693 54.3643L232.861 54.338C231.185 52.4209 230.154 50.2306 229.768 47.7673C229.4 45.4159 229.609 43.0889 230.396 40.7862C231.295 38.466 232.703 36.4676 234.62 34.791C235.746 33.9264 236.852 33.2945 237.937 32.8953C239.116 32.3666 240.321 32.0059 241.553 31.8131C243.568 31.4977 245.654 31.6301 247.809 32.2104L247.615 32.0688L248.534 32.4412Z" fill="white"/>
</svg>
